HIERARCHY
ROOT hips
{
	OFFSET 0.000000 104.274902 0.000000
	CHANNELS 6 Xposition Yposition Zposition Xrotation Yrotation Zrotation
	JOINT spine
	{
		OFFSET 0.000000 10.181549 0.131524
		CHANNELS 6 Xposition Yposition Zposition Xrotation Yrotation Zrotation
		JOINT chest
		{
			OFFSET 0.000000 9.893990 -1.470706
			CHANNELS 3 Xrotation Yrotation Zrotation
			JOINT upperChest
			{
				OFFSET 0.000000 9.220787 -1.370637
				CHANNELS 3 Xrotation Yrotation Zrotation
				JOINT neck
				{
					OFFSET 0.000000 16.740372 -2.049022
					CHANNELS 6 Xposition Yposition Zposition Xrotation Yrotation Zrotation
					JOINT head
					{
						OFFSET 0.000000 9.617859 1.684976
						CHANNELS 6 Xposition Yposition Zposition Xrotation Yrotation Zrotation
						JOINT headEnd
						{
							OFFSET 0.000000 22.037384 7.501072
							CHANNELS 6 Xposition Yposition Zposition Xrotation Yrotation Zrotation
							End Site
							{
								OFFSET 0.000000 23.106567 -2.828246
							}
						}
					}
				}
				JOINT rightShoulder
				{
					OFFSET -4.570000 11.014877 -2.160840
					CHANNELS 6 Xposition Yposition Zposition Xrotation Yrotation Zrotation
					JOINT rightUpperArm
					{
						OFFSET -10.592867 -0.524796 -2.232105
						CHANNELS 3 Xrotation Yrotation Zrotation
						JOINT rightLowerArm
						{
							OFFSET -27.841497 0.000000 -0.000002
							CHANNELS 3 Xrotation Yrotation Zrotation
							JOINT rightHand
							{
								OFFSET -28.328812 0.000000 -0.000001
								CHANNELS 3 Xrotation Yrotation Zrotation
								JOINT rightThumbProximal
								{
									OFFSET -2.464798 -1.573990 2.681911
									CHANNELS 6 Xposition Yposition Zposition Xrotation Yrotation Zrotation
									JOINT rightThumbIntermediate
									{
										OFFSET -3.244781 -1.873383 1.873376
										CHANNELS 3 Xrotation Yrotation Zrotation
										JOINT rightThumbDistal
										{
											OFFSET -2.646263 -1.527817 1.527818
											CHANNELS 6 Xposition Yposition Zposition Xrotation Yrotation Zrotation
											JOINT rightHandThumb4
											{
												OFFSET -1.994591 -1.151581 1.151575
												CHANNELS 6 Xposition Yposition Zposition Xrotation Yrotation Zrotation
												End Site
												{
													OFFSET -1.860176 -1.142715 1.365483
												}
											}
										}
									}
								}
								JOINT rightIndexProximal
								{
									OFFSET -9.108299 -0.517883 2.259803
									CHANNELS 6 Xposition Yposition Zposition Xrotation Yrotation Zrotation
									JOINT rightIndexIntermediate
									{
										OFFSET -3.699997 0.000000 0.000000
										CHANNELS 3 Xrotation Yrotation Zrotation
										JOINT rightIndexDistal
										{
											OFFSET -2.850006 0.000000 0.000000
											CHANNELS 3 Xrotation Yrotation Zrotation
											JOINT rightHandIndex4
											{
												OFFSET -2.772194 0.000000 0.000000
												CHANNELS 3 Xrotation Yrotation Zrotation
												End Site
												{
													OFFSET -2.772202 0.000000 -0.000484
												}
											}
										}
									}
								}
								JOINT rightMiddleProximal
								{
									OFFSET -9.532501 0.000000 -0.000000
									CHANNELS 6 Xposition Yposition Zposition Xrotation Yrotation Zrotation
									JOINT rightMiddleIntermediate
									{
										OFFSET -3.699997 0.000000 0.000000
										CHANNELS 3 Xrotation Yrotation Zrotation
										JOINT rightMiddleDistal
										{
											OFFSET -2.949997 0.000000 0.000000
											CHANNELS 3 Xrotation Yrotation Zrotation
											JOINT rightHandMiddle4
											{
												OFFSET -2.946594 0.000000 0.000000
												CHANNELS 3 Xrotation Yrotation Zrotation
												End Site
												{
													OFFSET -2.946602 0.000000 -0.000982
												}
											}
										}
									}
								}
								JOINT rightRingProximal
								{
									OFFSET -9.103600 -0.043106 -1.865100
									CHANNELS 6 Xposition Yposition Zposition Xrotation Yrotation Zrotation
									JOINT rightRingIntermediate
									{
										OFFSET -3.379303 0.000000 0.000000
										CHANNELS 3 Xrotation Yrotation Zrotation
										JOINT rightRingDistal
										{
											OFFSET -2.889694 0.000000 0.000000
											CHANNELS 3 Xrotation Yrotation Zrotation
											JOINT rightHandRing4
											{
												OFFSET -2.638802 0.000000 0.000000
												CHANNELS 3 Xrotation Yrotation Zrotation
												End Site
												{
													OFFSET -2.638802 0.000000 0.004218
												}
											}
										}
									}
								}
								JOINT rightLittleProximal
								{
									OFFSET -8.076698 -0.486725 -3.806299
									CHANNELS 6 Xposition Yposition Zposition Xrotation Yrotation Zrotation
									JOINT rightLittleIntermediate
									{
										OFFSET -3.600006 0.000000 0.000000
										CHANNELS 3 Xrotation Yrotation Zrotation
										JOINT rightLittleDistal
										{
											OFFSET -2.099998 0.000000 0.000000
											CHANNELS 3 Xrotation Yrotation Zrotation
											JOINT rightHandPinky4
											{
												OFFSET -2.115791 0.000000 0.000000
												CHANNELS 3 Xrotation Yrotation Zrotation
												End Site
												{
													OFFSET -2.115799 0.000000 0.000174
												}
											}
										}
									}
								}
							}
						}
					}
				}
				JOINT leftShoulder
				{
					OFFSET 4.570400 11.014679 -2.160816
					CHANNELS 6 Xposition Yposition Zposition Xrotation Yrotation Zrotation
					JOINT leftUpperArm
					{
						OFFSET 10.592373 -0.524597 -2.232116
						CHANNELS 3 Xrotation Yrotation Zrotation
						JOINT leftLowerArm
						{
							OFFSET 27.841488 0.000000 0.000001
							CHANNELS 3 Xrotation Yrotation Zrotation
							JOINT leftHand
							{
								OFFSET 28.328808 0.000000 -0.000000
								CHANNELS 3 Xrotation Yrotation Zrotation
								JOINT leftThumbProximal
								{
									OFFSET 2.466103 -1.576202 2.681698
									CHANNELS 6 Xposition Yposition Zposition Xrotation Yrotation Zrotation
									JOINT leftThumbIntermediate
									{
										OFFSET 3.243317 -1.872528 1.872530
										CHANNELS 3 Xrotation Yrotation Zrotation
										JOINT leftThumbDistal
										{
											OFFSET 2.647881 -1.528763 1.528754
											CHANNELS 6 Xposition Yposition Zposition Xrotation Yrotation Zrotation
											JOINT leftHandThumb4
											{
												OFFSET 1.998924 -1.154083 1.154080
												CHANNELS 6 Xposition Yposition Zposition Xrotation Yrotation Zrotation
												End Site
												{
													OFFSET 1.884041 -1.149155 1.337651
												}
											}
										}
									}
								}
								JOINT leftIndexProximal
								{
									OFFSET 9.109299 -0.518005 2.259900
									CHANNELS 6 Xposition Yposition Zposition Xrotation Yrotation Zrotation
									JOINT leftIndexIntermediate
									{
										OFFSET 3.699997 0.000000 0.000000
										CHANNELS 3 Xrotation Yrotation Zrotation
										JOINT leftIndexDistal
										{
											OFFSET 2.850006 0.000000 0.000000
											CHANNELS 3 Xrotation Yrotation Zrotation
											JOINT leftHandIndex4
											{
												OFFSET 2.774895 0.000000 0.000000
												CHANNELS 3 Xrotation Yrotation Zrotation
												End Site
												{
													OFFSET 2.774902 0.000000 -0.000072
												}
											}
										}
									}
								}
								JOINT leftMiddleProximal
								{
									OFFSET 9.533401 0.000000 0.000000
									CHANNELS 6 Xposition Yposition Zposition Xrotation Yrotation Zrotation
									JOINT leftMiddleIntermediate
									{
										OFFSET 3.699997 0.000000 0.000000
										CHANNELS 3 Xrotation Yrotation Zrotation
										JOINT leftMiddleDistal
										{
											OFFSET 2.949997 0.000000 0.000000
											CHANNELS 3 Xrotation Yrotation Zrotation
											JOINT leftHandMiddle4
											{
												OFFSET 2.952896 0.000000 0.000000
												CHANNELS 3 Xrotation Yrotation Zrotation
												End Site
												{
													OFFSET 2.952904 0.000000 0.000165
												}
											}
										}
									}
								}
								JOINT leftRingProximal
								{
									OFFSET 9.104500 -0.042999 -1.865101
									CHANNELS 6 Xposition Yposition Zposition Xrotation Yrotation Zrotation
									JOINT leftRingIntermediate
									{
										OFFSET 3.149994 0.000000 0.000000
										CHANNELS 3 Xrotation Yrotation Zrotation
										JOINT leftRingDistal
										{
											OFFSET 2.950005 0.000000 0.000000
											CHANNELS 3 Xrotation Yrotation Zrotation
											JOINT leftHandRing4
											{
												OFFSET 2.644302 0.000000 0.000000
												CHANNELS 3 Xrotation Yrotation Zrotation
												End Site
												{
													OFFSET 2.644302 0.000000 0.000083
												}
											}
										}
									}
								}
								JOINT leftLittleProximal
								{
									OFFSET 8.077805 -0.486893 -3.806302
									CHANNELS 6 Xposition Yposition Zposition Xrotation Yrotation Zrotation
									JOINT leftLittleIntermediate
									{
										OFFSET 3.600006 0.000000 0.000000
										CHANNELS 3 Xrotation Yrotation Zrotation
										JOINT leftLittleDistal
										{
											OFFSET 2.099998 0.000000 0.000000
											CHANNELS 3 Xrotation Yrotation Zrotation
											JOINT leftHandPinky4
											{
												OFFSET 2.125496 0.000000 0.000000
												CHANNELS 3 Xrotation Yrotation Zrotation
												End Site
												{
													OFFSET 2.125504 0.000000 -0.001254
												}
											}
										}
									}
								}
							}
						}
					}
				}
			}
		}
	}
	JOINT rightUpperLeg
	{
		OFFSET -8.207800 -6.751701 -1.599544
		CHANNELS 6 Xposition Yposition Zposition Xrotation Yrotation Zrotation
		JOINT rightLowerLeg
		{
			OFFSET 0.000004 -44.370152 0.345934
			CHANNELS 3 Xrotation Yrotation Zrotation
			JOINT rightFoot
			{
				OFFSET 0.000004 -44.423664 -3.043535
				CHANNELS 3 Xrotation Yrotation Zrotation
				JOINT rightToes
				{
					OFFSET 0.000001 -8.728691 10.710592
					CHANNELS 3 Xrotation Yrotation Zrotation
					JOINT rightToesEnd
					{
						OFFSET 0.000000 -0.000665 9.278101
						CHANNELS 3 Xrotation Yrotation Zrotation
						End Site
						{
							OFFSET 0.000000 -0.000665 9.278103
						}
					}
				}
			}
		}
	}
	JOINT leftUpperLeg
	{
		OFFSET 8.207800 -6.751701 -1.599544
		CHANNELS 6 Xposition Yposition Zposition Xrotation Yrotation Zrotation
		JOINT leftLowerLeg
		{
			OFFSET 0.000004 -44.370037 0.346940
			CHANNELS 3 Xrotation Yrotation Zrotation
			JOINT leftFoot
			{
				OFFSET 0.000004 -44.423611 -3.044388
				CHANNELS 3 Xrotation Yrotation Zrotation
				JOINT leftToes
				{
					OFFSET 0.000001 -8.728690 10.710592
					CHANNELS 3 Xrotation Yrotation Zrotation
					JOINT leftToesEnd
					{
						OFFSET 0.000000 -0.000680 9.278101
						CHANNELS 3 Xrotation Yrotation Zrotation
						End Site
						{
							OFFSET 0.000000 -0.000680 9.278101
						}
					}
				}
			}
		}
	}
}
MOTION
Frames: 4
Frame Time: 0.033333
1.745658 79.435112 4.070538 -5.304883 -15.610981 3.839500 0.000000 10.181543 0.131524 -21.851071 7.908521 3.494663 3.533977 0.911827 -2.861391 3.561171 1.008826 -2.780191 0.000001 16.740364 -2.049026 12.545628 0.325885 -0.505896 -0.000002 9.617840 1.684978 29.529527 3.136786 -11.461230 0.000001 22.037369 7.501070 0.000001 -0.000000 -0.000001 -4.569999 11.014881 -2.160845 -0.369054 -6.294879 0.250912 15.028274 -3.423883 59.799010 0.000218 102.316405 -0.000181 78.137187 4.071537 -53.000827 -2.464806 -1.574008 2.681908 -3.238740 -15.924045 -12.327242 5.224992 -15.134690 -0.677678 -2.646292 -1.527788 1.527818 -1.273752 0.137312 -2.094854 -1.994586 -1.151564 1.151567 -0.000000 -0.000002 0.000001 -9.108300 -0.517877 2.259802 -0.302423 3.882696 4.451587 0.031305 -0.660475 5.427963 0.040676 -0.752524 6.187393 0.000002 0.000002 0.000001 -9.532497 -0.000007 -0.000001 -0.001746 -0.120402 2.611942 0.038887 -0.735772 6.049076 -0.330265 -0.961803 7.487182 0.000001 0.000001 0.000002 -9.103608 -0.043088 -1.865103 0.116170 -4.223859 1.369905 0.058287 -0.900253 7.408365 -0.519643 -1.251108 9.456587 -0.000001 0.000001 0.000005 -8.076704 -0.486721 -3.806302 0.162649 -9.241087 0.464740 0.110498 -1.237191 10.207566 0.144622 -1.413565 11.682199 -0.000002 -0.000000 0.000003 4.570401 11.014698 -2.160820 -0.301778 1.960350 8.480615 2.356050 22.648977 -52.352604 0.000015 -74.054981 0.000039 43.417890 -0.518364 62.255870 2.466097 -1.576211 2.681701 -2.070024 20.070455 8.690521 4.272241 11.917712 1.052370 2.647884 -1.528750 1.528748 -0.579468 1.575010 2.538710 1.998917 -1.154092 1.154078 0.000001 0.000002 0.000003 9.109297 -0.518007 2.259900 0.311972 -2.052869 17.278611 0.026977 -0.610198 0.000004 0.001139 0.125651 -1.041216 0.000004 0.000000 -0.000000 9.533390 0.000001 0.000000 0.180151 -1.567724 13.107759 0.011949 -0.406468 0.000000 0.015936 0.469146 -3.890517 0.000001 0.000002 -0.000001 9.104482 -0.043006 -1.865103 0.148859 -1.426768 11.910578 0.000680 0.098002 -0.812115 0.090434 1.114649 -9.277945 0.000002 -0.000002 0.000001 8.077796 -0.486890 -3.806304 -0.772907 2.324657 14.013928 0.051981 -3.132773 -8.170132 0.259976 1.877877 -15.764258 -0.000002 -0.000002 0.000002 -8.207806 -6.751723 -1.599537 -36.220862 5.193526 -20.261743 76.966198 -6.237928 -9.309655 -35.517667 2.161766 24.462558 -0.000037 0.000012 -0.000001 -0.000000 -0.000002 -0.000000 8.207799 -6.751718 -1.599544 -18.591100 1.380181 22.887395 72.933416 -0.781131 -11.962773 -39.133098 14.442322 -16.985540 -1.982020 -0.000012 0.000003 -0.000000 0.000001 0.000000 
1.619008 79.435921 5.394163 -8.608048 -13.330333 3.646143 -0.000001 10.181554 0.131529 -23.272439 4.239906 0.290039 3.650854 0.499048 -0.703550 3.678924 0.529758 -0.661107 0.000001 16.740374 -2.049025 13.351801 0.678324 -1.575426 -0.000002 9.617868 1.684967 32.724881 3.648473 -13.537093 -0.000000 22.037369 7.501075 -0.000003 0.000000 -0.000000 -4.569999 11.014863 -2.160840 -0.659265 -5.460054 -2.072398 22.191175 -2.356935 61.302519 0.000433 97.941948 -0.000394 78.174322 5.270944 -52.985210 -2.464795 -1.574009 2.681908 -3.238717 -15.924038 -12.327242 5.224994 -15.134680 -0.677672 -2.646269 -1.527804 1.527818 -1.273756 0.137307 -2.094857 -1.994613 -1.151582 1.151572 0.000002 -0.000004 0.000003 -9.108287 -0.517884 2.259801 -0.230910 4.013809 3.413452 0.025619 -0.597592 4.909787 0.037342 -0.721131 5.928287 0.000000 -0.000001 0.000001 -9.532500 0.000001 -0.000005 -0.001844 -0.112928 2.550657 0.039079 -0.737704 6.064924 -0.433293 -0.977713 7.503473 -0.000001 0.000000 0.000001 -9.103591 -0.043110 -1.865103 0.184655 -4.332936 2.287347 0.070908 -0.992536 8.172954 -0.616827 -1.327354 9.894028 0.000000 0.000001 0.000001 -8.076705 -0.486721 -3.806304 0.506954 -9.483193 2.580868 0.140064 -1.391331 11.495954 0.160942 -1.490299 12.326480 0.000001 0.000000 0.000005 4.570401 11.014665 -2.160815 -0.402310 2.701559 8.034406 12.325210 24.948866 -57.788946 -0.000008 -72.530305 0.000002 40.731819 -2.354958 62.449191 2.466103 -1.576212 2.681694 -2.070027 20.070453 8.690523 4.272241 11.917706 1.052370 2.647889 -1.528744 1.528755 -0.579466 1.575010 2.538708 1.998928 -1.154083 1.154083 0.000002 0.000003 0.000001 9.109304 -0.518016 2.259896 0.350601 -2.173094 18.326366 0.032843 -0.673071 -0.000056 0.000639 0.094079 -0.779626 -0.000001 -0.000001 0.000000 9.533400 -0.000001 -0.000002 0.206901 -1.678406 14.052113 0.017628 -0.493440 -0.000022 0.012771 0.420030 -3.482618 0.000001 -0.000001 -0.000001 9.104498 -0.042995 -1.865101 0.176440 -1.551733 12.971719 0.000011 -0.009888 -0.000010 0.080692 1.053256 -8.762747 -0.000003 0.000000 0.000000 8.077789 -0.486882 -3.806308 -0.828084 2.133451 15.432599 0.035793 -3.252815 -7.167487 0.243795 1.819588 -15.262427 -0.000003 -0.000000 0.000001 -8.207803 -6.751692 -1.599542 -29.411177 6.354884 -19.885136 77.540822 -2.694893 -8.650446 -37.053544 -5.544010 22.429867 -0.000048 -0.000007 -0.000003 -0.000000 0.000000 0.000000 8.207796 -6.751693 -1.599544 -14.580195 0.554031 21.178243 72.478293 -0.789814 -10.781378 -39.982568 14.564306 -17.191306 -3.420724 -0.000004 -0.000003 0.000000 0.000001 0.000000 
1.969451 79.417145 6.415728 -11.635582 -6.638146 2.951445 -0.000001 10.181545 0.131531 -23.450734 -1.964376 -5.263980 3.785517 -0.187103 2.713187 3.820165 -0.269232 2.688443 -0.000001 16.740385 -2.049017 12.940997 0.743764 -2.467952 0.000001 9.617857 1.684967 33.205228 2.840137 -15.216741 -0.000003 22.037399 7.501075 0.000001 0.000000 0.000000 -4.570002 11.014877 -2.160843 -0.461447 -2.267986 -3.659024 28.789678 -4.602891 61.351703 0.000891 93.029758 -0.000898 76.551223 6.943052 -52.915965 -2.464792 -1.574002 2.681907 -3.238724 -15.924050 -12.327249 5.224997 -15.134683 -0.677673 -2.646276 -1.527794 1.527821 -1.273751 0.137302 -2.094863 -1.994582 -1.151573 1.151569 0.000002 0.000003 -0.000000 -9.108294 -0.517882 2.259799 -0.071573 4.287297 1.212120 0.015440 -0.464144 3.811549 0.030741 -0.654536 5.379124 0.000001 0.000002 0.000004 -9.532500 -0.000001 -0.000002 -0.002665 0.037949 1.313005 0.028906 -0.634666 5.215314 -0.506782 -0.925192 7.034692 0.000000 0.000001 0.000002 -9.103594 -0.043115 -1.865104 0.142958 -4.266975 1.731425 0.064512 -0.946874 7.794391 -0.689225 -1.311157 9.683854 -0.000001 0.000001 -0.000002 -8.076691 -0.486726 -3.806305 0.505435 -9.482165 2.571719 0.139918 -1.390661 11.490399 0.160871 -1.489964 12.323684 0.000000 0.000001 0.000001 4.570398 11.014690 -2.160818 -0.297823 2.971530 5.958540 17.220201 21.826368 -61.828717 -0.000022 -67.212770 -0.000040 37.866364 -5.456573 62.109950 2.466116 -1.576203 2.681703 -2.070018 20.070460 8.690506 4.272245 11.917716 1.052366 2.647892 -1.528745 1.528754 -0.579463 1.575003 2.538707 1.998928 -1.154084 1.154085 0.000001 0.000001 0.000001 9.109296 -0.518022 2.259898 0.383596 -2.270189 19.177276 0.038018 -0.724059 -0.000006 0.000335 0.068437 -0.567213 -0.000001 -0.000002 0.000000 9.533405 0.000010 -0.000005 0.230107 -1.768502 14.823770 0.023087 -0.564577 -0.000033 0.010439 0.379706 -3.147908 -0.000001 -0.000002 0.000001 9.104506 -0.043001 -1.865101 0.200852 -1.654069 13.844151 0.000710 -0.098823 -0.000004 0.073039 1.002423 -8.336488 0.000000 0.000001 0.000002 8.077806 -0.486892 -3.806308 -0.870040 1.974616 16.603290 0.023999 -3.352372 -6.337434 0.230698 1.770942 -14.844573 0.000000 0.000002 0.000002 -8.207806 -6.751692 -1.599536 -23.255039 2.129656 -24.239745 76.961042 -1.519313 -5.003787 -38.615830 -6.195551 21.666427 -0.000055 0.000007 -0.000002 -0.000000 0.000000 0.000000 8.207796 -6.751700 -1.599542 -15.001874 2.882419 19.634951 73.478458 -2.303033 -2.265858 -40.903114 12.697353 -17.569787 -1.807678 0.000013 -0.000000 0.000000 -0.000000 0.000000 
2.348530 79.420258 7.053120 -13.963638 -2.598605 2.659809 0.000002 10.181562 0.131520 -22.426387 -4.988360 -8.238339 3.593304 -0.519847 4.451598 3.634521 -0.659465 4.394667 -0.000000 16.740385 -2.049026 11.590036 0.584694 -2.697117 -0.000005 9.617846 1.684966 30.466506 1.670372 -15.067136 -0.000002 22.037369 7.501079 0.000000 0.000000 0.000000 -4.569999 11.014872 -2.160840 -0.247452 -0.157270 -4.600470 33.725941 -5.077827 62.905994 -0.000773 85.222879 0.000833 73.270745 9.261986 -52.981777 -2.464786 -1.573989 2.681901 -3.238731 -15.924057 -12.327252 5.224996 -15.134685 -0.677674 -2.646276 -1.527803 1.527819 -1.273753 0.137311 -2.094857 -1.994594 -1.151600 1.151578 0.000001 -0.000005 0.000001 -9.108288 -0.517868 2.259795 0.094767 4.549201 -0.946891 0.007962 -0.333195 2.735218 0.024909 -0.589236 4.840929 0.000000 0.000000 -0.000000 -9.532489 0.000004 -0.000008 0.000994 0.229258 -0.256498 0.017864 -0.499042 4.098458 -0.531783 -0.845622 6.413376 0.000001 0.000000 0.000002 -9.103590 -0.043108 -1.865109 0.044480 -4.105245 0.382363 0.048836 -0.824320 6.780137 -0.716371 -1.236824 9.112160 0.000000 -0.000000 -0.000000 -8.076691 -0.486715 -3.806305 0.267713 -9.316993 1.116236 0.119230 -1.284752 10.604405 0.149554 -1.437205 11.880649 -0.000000 0.000003 0.000002 4.570400 11.014675 -2.160818 -0.134222 2.638699 4.036267 15.716380 16.569585 -63.480529 -0.000021 -56.152949 0.000000 34.391976 -11.630939 61.124032 2.466088 -1.576206 2.681705 -2.070030 20.070456 8.690500 4.272240 11.917710 1.052363 2.647885 -1.528738 1.528762 -0.579464 1.575007 2.538703 1.998905 -1.154093 1.154083 0.000001 0.000006 0.000005 9.109295 -0.518010 2.259897 0.409685 -2.343804 19.825649 0.042223 -0.762899 0.000008 0.000178 0.048922 -0.405394 -0.000001 0.000000 0.000000 9.533405 0.000003 -0.000004 0.249145 -1.838885 15.428453 0.027910 -0.620486 -0.000036 0.008740 0.347956 -2.884445 0.000000 -0.000000 -0.000002 9.104499 -0.042990 -1.865102 0.221617 -1.736165 14.546508 0.002103 -0.170594 0.000005 0.067159 0.961364 -7.992727 -0.000002 -0.000001 -0.000000 8.077806 -0.486908 -3.806300 -0.901984 1.843943 17.561776 0.015405 -3.433910 -5.658366 0.220278 1.731157 -14.503461 -0.000002 0.000003 0.000001 -8.207806 -6.751699 -1.599541 -19.211524 -1.383905 -29.360996 76.077044 -2.429411 -0.559016 -39.578395 -0.869840 22.452119 -0.000053 -0.000002 0.000008 -0.000000 0.000000 0.000000 8.207799 -6.751695 -1.599545 -14.768658 5.828267 18.552448 74.160213 -5.906812 4.885878 -41.941036 13.494891 -16.321960 -0.000026 -0.000007 0.000001 -0.000000 0.000000 0.000000 
